<svg xmlns="http://www.w3.org/2000/svg" version="1.1" xmlns:xlink="http://www.w3.org/1999/xlink" xmlns:svgjs="http://svgjs.com/svgjs" width="512" height="512"><svg id="SvgjsSvg1000" data-name="Layer 1" xmlns="http://www.w3.org/2000/svg" version="1.1" viewBox="0 0 512 512">
  <defs>
    <style>
      .cls-1 {
        fill: #fcd20e;
        stroke: #fcd20e;
        stroke-miterlimit: 10;
        stroke-width: 3.6px;
      }

      .cls-1, .cls-2, .cls-3 {
        fill-rule: evenodd;
      }

      .cls-2 {
        fill: #0835a9;
      }

      .cls-2, .cls-3, .cls-4, .cls-5, .cls-6 {
        stroke-width: 0px;
      }

      .cls-3 {
        fill: #d00821;
      }

      .cls-4 {
        fill: #fff;
      }

      .cls-5 {
        fill: #efefef;
      }

      .cls-6 {
        fill: #f7f7f7;
      }
    </style>
  </defs>
  <path class="cls-3" d="M295.7,319.2c2.8,8.7,6.7,45,0,89.5-8.7,57.8-75.4,104.9-65.5,101.6,25.5-8.6,42.4-16.1,58.1-27.8,12.7-9.5,34.6-24.7,36.4-68.7,1.5-36.4-7-63-13.4-74.8-7.5-13.5-17.8-27.2-15.5-19.9h-.1Z"></path>
  <path class="cls-1" d="M148.9,111.4l-82.9-30.3L44.5,4l73.9,9.7,43.9,70.9-13.4,26.8h0Z"></path>
  <path class="cls-1" d="M143,163.5l4.5,34.8-89.2,30.9-50.3-40.9,40.4-45.5,94.6,20.7h0Z"></path>
  <path class="cls-1" d="M164.8,249.5l-89.7,38.9-21.6,82.9,75.5-22.8,49-67.4-13.2-31.6h0Z"></path>
  <path class="cls-2" d="M206.6,509.9c-6.9,5.6,19.7-80.7,9.8-161-8.6-70.2-78.3-163.1-51.6-234.6,14.6-39,52.3-64.5,82.7-78C329,.3,445.7,26.9,488.8,110.9c25.5,49.6,25.8,120.5-13.7,170.1-18.2,22.9-40.8,41.4-74,46.8-57.8,9.3-128-44.7-104-36.5,14.8,5.1,93.4,9,127.2-36.1,25.8-34.4,8.3-84.5.9-101.4-9.4-21.3-32.2-57.1-74.8-67.9-40.2-10.2-88.4,3-107.4,34.4-34.5,56.8-9.6,88.2,20.2,172.2,6.7,18.7,17.3,56.3,11.6,98.5-9.3,67.8-35.7,87.3-63.3,114l-4.9,4.9h0Z"></path>
  <path class="cls-5" d="M330.3,111.4c42.7,0,77.4,34.7,77.4,77.4s-34.7,77.4-77.4,77.4-77.4-34.7-77.4-77.4,34.7-77.4,77.4-77.4h0Z"></path>
  <path class="cls-6" d="M330.3,111.4c-25.5,0-48.1,12.3-62.2,31.3-.7,4.3-1.1,8.6-1.1,13.1,0,42.7,34.7,77.4,77.4,77.4s48.1-12.3,62.2-31.3c.7-4.3,1.1-8.6,1.1-13.1,0-42.7-34.7-77.4-77.4-77.4Z"></path>
  <ellipse class="cls-4" cx="355.1" cy="140.4" rx="21.5" ry="38.4" transform="translate(70.6 395.1) rotate(-63.4)"></ellipse>
</svg><style>@media (prefers-color-scheme: light) { :root { filter: none; } }
@media (prefers-color-scheme: dark) { :root { filter: none; } }
</style></svg>